<svg id="svg" version="1.1" xmlns="http://www.w3.org/2000/svg" xmlns:xlink="http://www.w3.org/1999/xlink" width="400" height="400" viewBox="0, 0, 400,400"><g id="svgg"><path id="path0" d="M250.432 129.936 C 245.321 132.482,245.313 132.538,245.313 162.523 L 245.313 187.117 206.738 187.073 C 185.522 187.049,165.049 186.937,161.241 186.825 L 154.318 186.621 154.210 161.182 C 154.103 135.965,154.094 135.728,153.258 134.180 C 150.901 129.812,149.384 129.297,138.867 129.297 C 129.562 129.297,128.823 129.440,126.589 131.674 C 123.600 134.663,123.846 128.575,123.837 199.662 L 123.828 263.192 124.919 265.281 C 127.161 269.572,131.105 270.675,142.451 270.180 C 147.515 269.959,148.833 269.562,150.915 267.631 C 153.661 265.083,153.536 266.432,153.628 238.365 L 153.711 213.086 199.512 212.987 L 245.313 212.887 245.313 237.623 C 245.313 271.814,244.599 270.313,260.841 270.313 L 269.051 270.313 271.141 269.221 C 272.662 268.427,273.551 267.611,274.408 266.225 L 275.586 264.320 275.892 216.242 C 276.061 189.799,276.148 161.045,276.087 152.344 L 275.975 136.523 274.871 134.274 C 272.633 129.712,270.397 128.906,259.976 128.906 C 252.679 128.906,252.447 128.931,250.432 129.936 M100.156 147.029 C 99.061 147.539,97.811 148.460,97.379 149.076 C 95.532 151.706,95.575 150.527,95.540 200.029 L 95.508 246.738 96.682 248.662 C 98.764 252.076,100.692 252.736,108.566 252.729 C 112.126 252.726,115.435 252.618,115.918 252.488 L 116.797 252.253 116.797 199.410 C 116.797 151.585,116.738 146.545,116.179 146.331 C 114.224 145.581,102.136 146.107,100.156 147.029 M283.984 146.443 L 283.008 146.715 282.924 199.710 C 282.859 240.921,282.946 252.771,283.315 253.001 C 284.392 253.673,296.314 253.635,298.367 252.953 C 300.820 252.138,303.275 249.601,303.929 247.203 C 304.771 244.118,304.201 153.394,303.327 151.261 C 302.509 149.265,300.189 147.172,298.102 146.547 C 296.476 146.060,285.649 145.980,283.984 146.443 M85.938 179.269 C 77.740 179.762,77.187 181.172,77.421 200.984 C 77.637 219.354,77.960 220.009,87.012 220.437 L 89.844 220.571 89.844 199.739 C 89.844 188.281,89.800 178.938,89.746 178.976 C 89.692 179.014,87.979 179.146,85.938 179.269 M309.765 199.707 L 309.765 220.508 313.574 220.296 C 318.451 220.025,320.220 218.984,321.659 215.540 C 322.392 213.784,322.564 186.832,321.858 184.289 C 320.860 180.697,317.941 178.928,312.988 178.915 L 309.766 178.906 309.765 199.707 " stroke="none" fill="#1c1c1c" fill-rule="evenodd"></path><path id="path1" d="M0.000 200.000 L 0.000 400.000 200.000 400.000 L 400.000 400.000 400.000 200.000 L 400.000 0.000 200.000 0.000 L 0.000 0.000 0.000 200.000 M149.414 129.942 C 154.416 132.634,154.278 131.744,154.288 161.426 L 154.297 186.719 199.805 186.719 L 245.313 186.719 245.321 161.426 C 245.331 133.344,245.237 134.395,247.972 131.507 C 250.259 129.093,251.122 128.906,259.998 128.906 C 270.509 128.906,272.731 129.673,275.111 134.124 L 275.977 135.742 276.079 198.810 C 276.192 268.416,276.325 264.479,273.757 267.404 C 271.190 270.327,270.422 270.508,260.547 270.508 C 244.613 270.508,245.313 272.003,245.313 237.932 L 245.313 212.869 212.402 212.977 C 194.302 213.037,173.740 213.135,166.710 213.194 L 153.928 213.302 153.820 238.616 L 153.711 263.929 152.529 265.841 C 151.796 267.026,150.620 268.202,149.434 268.935 L 147.521 270.117 138.702 270.117 C 129.085 270.117,128.770 270.056,126.399 267.712 C 123.688 265.032,123.900 270.483,123.759 199.805 L 123.633 136.133 124.552 134.265 C 125.574 132.191,127.738 130.173,129.741 129.427 C 132.204 128.510,147.497 128.911,149.414 129.942 M115.576 145.947 L 116.797 146.191 116.797 199.280 C 116.797 249.473,116.760 252.384,116.113 252.649 C 114.550 253.291,102.621 252.961,100.708 252.223 C 98.528 251.382,96.308 249.063,95.706 246.997 C 94.845 244.045,95.351 152.442,96.237 150.781 C 97.615 148.198,99.468 146.721,102.148 146.068 C 103.616 145.711,113.930 145.618,115.576 145.947 M299.637 147.168 C 301.916 148.323,303.265 149.962,303.912 152.364 C 304.170 153.322,304.271 170.106,304.204 200.869 L 304.102 247.909 303.024 249.537 C 300.676 253.085,293.150 254.627,284.511 253.332 L 282.813 253.077 282.813 199.809 C 282.813 149.407,282.849 146.532,283.496 146.363 C 286.491 145.580,297.596 146.134,299.637 147.168 M90.140 199.948 L 90.241 220.794 86.346 220.638 C 81.723 220.452,79.744 219.423,78.223 216.416 C 77.201 214.395,76.832 187.191,77.788 184.336 C 79.097 180.426,81.721 178.860,86.719 179.005 L 90.039 179.102 90.140 199.948 M318.813 180.034 C 322.247 182.212,322.267 182.324,322.257 199.635 C 322.246 219.650,321.713 220.703,311.604 220.703 L 309.251 220.703 309.507 200.098 C 309.647 188.765,309.763 179.360,309.764 179.199 C 309.769 178.254,317.068 178.927,318.813 180.034 " stroke="none" fill="#f7f7f7" fill-rule="evenodd"></path><path id="path2" d="M111.621 145.986 C 112.319 146.072,113.462 146.072,114.160 145.986 C 114.858 145.899,114.287 145.828,112.891 145.828 C 111.494 145.828,110.923 145.899,111.621 145.986 M95.470 159.766 C 95.470 163.096,95.530 164.458,95.603 162.793 C 95.676 161.128,95.676 158.403,95.603 156.738 C 95.530 155.073,95.470 156.436,95.470 159.766 M95.403 167.188 C 95.403 167.939,95.484 168.247,95.582 167.871 C 95.680 167.495,95.680 166.880,95.582 166.504 C 95.484 166.128,95.403 166.436,95.403 167.188 M90.025 198.438 C 90.025 209.072,90.075 213.423,90.136 208.105 C 90.198 202.788,90.198 194.087,90.136 188.770 C 90.075 183.452,90.025 187.803,90.025 198.438 M190.723 186.999 C 191.313 187.088,192.280 187.088,192.871 186.999 C 193.462 186.909,192.979 186.836,191.797 186.836 C 190.615 186.836,190.132 186.909,190.723 186.999 M199.131 187.005 C 200.050 187.088,201.456 187.087,202.256 187.003 C 203.056 186.919,202.305 186.851,200.586 186.853 C 198.867 186.854,198.213 186.923,199.131 187.005 M204.785 186.999 C 205.376 187.088,206.343 187.088,206.934 186.999 C 207.524 186.909,207.041 186.836,205.859 186.836 C 204.678 186.836,204.194 186.909,204.785 186.999 M219.244 186.999 C 219.837 187.089,220.716 187.086,221.197 186.994 C 221.677 186.901,221.191 186.828,220.117 186.830 C 219.043 186.833,218.650 186.909,219.244 186.999 M123.587 198.242 C 123.587 200.820,123.651 201.824,123.727 200.473 C 123.804 199.122,123.803 197.012,123.726 195.785 C 123.648 194.559,123.586 195.664,123.587 198.242 M309.547 204.688 C 309.547 210.811,309.601 213.315,309.667 210.254 C 309.733 207.192,309.733 202.183,309.667 199.121 C 309.601 196.060,309.547 198.564,309.547 204.688 M160.059 213.183 C 163.550 213.248,169.263 213.248,172.754 213.183 C 176.245 213.118,173.389 213.065,166.406 213.065 C 159.424 213.065,156.567 213.118,160.059 213.183 M312.402 220.588 C 312.886 220.681,313.677 220.681,314.160 220.588 C 314.644 220.495,314.248 220.419,313.281 220.419 C 312.314 220.419,311.919 220.495,312.402 220.588 M275.960 245.898 C 275.960 255.137,276.012 258.860,276.074 254.173 C 276.136 249.485,276.136 241.927,276.074 237.376 C 276.011 232.825,275.960 236.660,275.960 245.898 M105.940 253.024 C 107.381 253.099,109.842 253.099,111.409 253.025 C 112.976 252.950,111.797 252.889,108.789 252.888 C 105.781 252.888,104.499 252.949,105.940 253.024 M256.543 270.604 C 258.745 270.673,262.349 270.673,264.551 270.604 C 266.753 270.534,264.951 270.477,260.547 270.477 C 256.143 270.477,254.341 270.534,256.543 270.604 " stroke="none" fill="#9a999a" fill-rule="evenodd"></path><path id="path3" d="M123.544 142.188 C 123.544 143.154,123.620 143.550,123.713 143.066 C 123.806 142.583,123.806 141.792,123.713 141.309 C 123.620 140.825,123.544 141.221,123.544 142.188 M107.520 145.983 C 108.110 146.072,109.077 146.072,109.668 145.983 C 110.259 145.893,109.775 145.820,108.594 145.820 C 107.412 145.820,106.929 145.893,107.520 145.983 M123.566 153.711 C 123.567 155.215,123.638 155.782,123.723 154.972 C 123.807 154.161,123.806 152.931,123.719 152.237 C 123.633 151.544,123.564 152.207,123.566 153.711 M123.566 173.242 C 123.567 174.746,123.638 175.313,123.723 174.503 C 123.807 173.693,123.806 172.462,123.719 171.769 C 123.633 171.075,123.564 171.738,123.566 173.242 M123.592 182.617 C 123.592 185.625,123.654 186.804,123.728 185.237 C 123.802 183.670,123.802 181.209,123.727 179.768 C 123.652 178.327,123.591 179.609,123.592 182.617 M185.831 187.001 C 186.525 187.087,187.755 187.088,188.566 187.004 C 189.376 186.919,188.809 186.849,187.305 186.847 C 185.801 186.845,185.138 186.914,185.831 187.001 M214.160 186.999 C 214.751 187.088,215.718 187.088,216.309 186.999 C 216.899 186.909,216.416 186.836,215.234 186.836 C 214.053 186.836,213.569 186.909,214.160 186.999 M222.363 186.988 C 222.739 187.086,223.354 187.086,223.730 186.988 C 224.106 186.890,223.799 186.809,223.047 186.809 C 222.295 186.809,221.987 186.890,222.363 186.988 M225.684 187.001 C 226.382 187.088,227.524 187.088,228.223 187.001 C 228.921 186.915,228.350 186.844,226.953 186.844 C 225.557 186.844,224.985 186.915,225.684 187.001 M123.569 191.016 C 123.569 192.627,123.638 193.286,123.722 192.480 C 123.806 191.675,123.806 190.356,123.722 189.551 C 123.638 188.745,123.569 189.404,123.569 191.016 M275.945 216.992 C 275.945 221.289,276.002 223.100,276.072 221.017 C 276.142 218.934,276.143 215.418,276.073 213.204 C 276.003 210.991,275.946 212.695,275.945 216.992 M309.474 216.992 C 309.478 217.852,309.558 218.157,309.651 217.671 C 309.745 217.185,309.741 216.482,309.643 216.109 C 309.546 215.735,309.469 216.133,309.474 216.992 M275.902 227.148 C 275.904 228.437,275.977 228.918,276.064 228.216 C 276.151 227.514,276.149 226.459,276.060 225.872 C 275.971 225.285,275.900 225.859,275.902 227.148 " stroke="none" fill="#848484" fill-rule="evenodd"></path><path id="path4" d="M135.274 129.198 C 137.380 129.268,140.720 129.268,142.696 129.197 C 144.672 129.126,142.949 129.069,138.867 129.069 C 134.785 129.069,133.168 129.127,135.274 129.198 M275.888 139.063 C 275.888 140.029,275.964 140.425,276.057 139.941 C 276.150 139.458,276.150 138.667,276.057 138.184 C 275.964 137.700,275.888 138.096,275.888 139.063 M304.073 162.305 C 304.073 167.031,304.129 168.911,304.198 166.482 C 304.267 164.053,304.266 160.186,304.198 157.889 C 304.129 155.591,304.072 157.578,304.073 162.305 M123.528 157.422 C 123.528 158.174,123.609 158.481,123.707 158.105 C 123.805 157.729,123.805 157.114,123.707 156.738 C 123.609 156.362,123.528 156.670,123.528 157.422 M85.254 179.191 C 86.060 179.275,87.378 179.275,88.184 179.191 C 88.989 179.107,88.330 179.038,86.719 179.038 C 85.107 179.038,84.448 179.107,85.254 179.191 M282.975 191.992 C 282.976 196.074,283.034 197.691,283.104 195.585 C 283.174 193.479,283.174 190.139,283.103 188.163 C 283.033 186.187,282.975 187.910,282.975 191.992 M166.313 186.995 C 166.799 187.088,167.502 187.085,167.876 186.987 C 168.249 186.889,167.852 186.813,166.992 186.817 C 166.133 186.822,165.827 186.902,166.313 186.995 M172.775 187.010 C 175.096 187.080,178.788 187.079,180.978 187.010 C 183.169 186.940,181.270 186.884,176.758 186.884 C 172.246 186.884,170.454 186.941,172.775 187.010 M233.907 187.010 C 236.121 187.080,239.637 187.080,241.720 187.010 C 243.803 186.940,241.992 186.883,237.695 186.883 C 233.398 186.883,231.694 186.941,233.907 187.010 M275.938 201.563 C 275.938 204.893,275.998 206.255,276.072 204.590 C 276.145 202.925,276.145 200.200,276.072 198.535 C 275.998 196.870,275.938 198.232,275.938 201.563 M77.442 212.695 C 77.447 213.555,77.527 213.860,77.620 213.374 C 77.713 212.888,77.710 212.185,77.612 211.812 C 77.514 211.438,77.438 211.836,77.442 212.695 M153.699 236.914 C 153.699 249.375,153.748 254.529,153.808 248.368 C 153.869 242.206,153.869 232.011,153.808 225.711 C 153.748 219.412,153.699 224.453,153.699 236.914 M85.254 220.582 C 85.630 220.680,86.245 220.680,86.621 220.582 C 86.997 220.484,86.689 220.403,85.938 220.403 C 85.186 220.403,84.878 220.484,85.254 220.582 M132.525 270.202 C 133.119 270.292,133.998 270.290,134.478 270.197 C 134.958 270.104,134.473 270.031,133.398 270.034 C 132.324 270.037,131.931 270.112,132.525 270.202 " stroke="none" fill="#7e7c7e" fill-rule="evenodd"></path></g></svg>